<svg width="899" height="290" viewBox="0 0 899 290" fill="none" xmlns="http://www.w3.org/2000/svg">
<path d="M197.534 118.727C193.209 123.822 187.848 127.821 181.449 130.724C175.051 133.627 167.971 135.078 160.21 135.078C150.968 135.078 142.703 133.094 135.416 129.124C128.188 125.096 122.501 119.615 118.353 112.684C114.206 105.693 112.133 97.7538 112.133 88.8668C112.133 79.9808 114.206 72.0718 118.353 65.1398C122.501 58.1488 128.188 52.6686 135.416 48.6992C142.703 44.6706 150.968 42.6563 160.21 42.6563C167.912 42.6563 174.932 44.1078 181.271 47.0108C187.67 49.8545 193.031 53.7648 197.356 58.7408L180.294 76.7808C178.22 74.2928 175.554 72.3378 172.296 70.9158C169.097 69.4938 165.749 68.7828 162.254 68.7828C158.344 68.7828 154.848 69.6418 151.767 71.3608C148.746 73.0188 146.347 75.3598 144.569 78.3808C142.851 81.4028 141.992 84.8388 141.992 88.6898C141.992 92.6588 142.851 96.1838 144.569 99.2648C146.347 102.286 148.746 104.656 151.767 106.374C154.848 108.092 158.344 108.951 162.254 108.951C165.749 108.951 169.126 108.24 172.385 106.819C175.643 105.397 178.28 103.442 180.294 100.953L197.534 118.727ZM425.301 133.301H399.707L398.196 121.482C394.582 125.688 390.198 129.006 385.044 131.435C379.89 133.864 374.291 135.078 368.248 135.078C360.368 135.078 353.318 133.094 347.098 129.124C340.936 125.096 336.078 119.615 332.523 112.684C328.969 105.693 327.191 97.7538 327.191 88.8668C327.191 79.9808 328.969 72.0718 332.523 65.1398C336.078 58.1488 340.936 52.6686 347.098 48.6992C353.318 44.6706 360.368 42.6563 368.248 42.6563C373.817 42.6563 378.971 43.6634 383.711 45.6778C388.45 47.6328 392.598 50.3877 396.152 53.9428V0H425.301V133.301ZM376.69 108.951C380.245 108.951 383.503 108.181 386.466 106.641C389.428 105.041 391.768 102.849 393.486 100.065C395.264 97.2208 396.152 93.9918 396.152 90.3778V87.0898C396.152 83.5348 395.264 80.3948 393.486 77.6698C391.768 74.8858 389.428 72.6938 386.466 71.0938C383.503 69.4938 380.245 68.6948 376.69 68.6948C372.899 68.6948 369.522 69.5828 366.559 71.3608C363.597 73.0788 361.257 75.4778 359.539 78.5588C357.88 81.5798 357.051 85.0158 357.051 88.8668C357.051 92.7178 357.88 96.1838 359.539 99.2648C361.257 102.286 363.597 104.656 366.559 106.374C369.522 108.092 372.899 108.951 376.69 108.951ZM528.209 123.614C517.13 131.257 505.074 135.078 492.04 135.078C482.205 135.078 473.348 133.005 465.469 128.858C457.648 124.651 451.457 118.964 446.895 111.795C442.334 104.627 440.053 96.5098 440.053 87.4458C440.053 78.8548 442.097 71.2118 446.184 64.5178C450.272 57.7638 455.841 52.4317 462.891 48.5215C470.001 44.6113 478.029 42.6563 486.974 42.6563C496.276 42.6563 504.452 44.8187 511.502 49.1436C518.552 53.4688 524.032 59.4818 527.942 67.1838C531.912 74.8258 533.896 83.7128 533.896 93.8438V96.6878H471.334C472.4 99.5908 474 102.168 476.133 104.419C478.325 106.67 481.05 108.477 484.308 109.84C487.567 111.143 491.299 111.795 495.506 111.795C504.215 111.795 512.391 108.981 520.033 103.353L528.209 123.614ZM470.09 83.5348H507.058C506.703 80.2178 505.696 77.2848 504.037 74.7378C502.378 72.1898 500.186 70.2048 497.461 68.7828C494.795 67.3618 491.803 66.6508 488.485 66.6508C485.108 66.6508 482.116 67.4208 479.51 68.9608C476.962 70.4418 474.859 72.4568 473.2 75.0038C471.6 77.4918 470.564 80.3358 470.09 83.5348Z" fill="black"/>
<path d="M125.889 279.747L132.02 255.398C133.738 257.294 136.138 259.1 139.219 260.819C142.299 262.537 145.617 263.929 149.172 264.995C152.786 266.002 156.163 266.506 159.303 266.506C162.324 266.506 164.664 265.973 166.323 264.906C167.982 263.84 168.811 262.418 168.811 260.641C168.811 258.982 168.16 257.59 166.856 256.464C165.553 255.279 163.835 254.213 161.702 253.265C159.569 252.317 157.14 251.369 154.415 250.421C150.623 248.999 146.654 247.311 142.507 245.356C138.36 243.341 134.864 240.646 132.02 237.269C129.236 233.833 127.844 229.271 127.844 223.583C127.844 218.073 129.266 213.304 132.109 209.276C135.012 205.247 139.1 202.137 144.373 199.945C149.646 197.752 155.837 196.656 162.946 196.656C174.617 196.656 186.318 199.589 198.049 205.454L189.873 228.027C187.977 226.486 185.548 225.035 182.586 223.672C179.624 222.25 176.572 221.125 173.433 220.295C170.352 219.406 167.627 218.962 165.257 218.962C162.828 218.962 160.961 219.436 159.658 220.384C158.355 221.332 157.703 222.606 157.703 224.205C157.703 225.627 158.266 226.901 159.391 228.027C160.517 229.093 162.146 230.1 164.279 231.048C166.412 231.996 168.871 233.003 171.655 234.07C175.684 235.491 179.772 237.21 183.919 239.224C188.066 241.238 191.561 243.963 194.405 247.4C197.308 250.836 198.76 255.427 198.76 261.174C198.76 266.802 197.219 271.72 194.139 275.926C191.058 280.073 186.703 283.302 181.075 285.613C175.506 287.923 168.93 289.078 161.347 289.078C148.668 289.078 136.849 285.968 125.889 279.747ZM364.053 287.301H332.771V154H364.053V287.301ZM472.471 287.301H449.187L448.21 273.082C445.129 278.296 441.012 282.265 435.857 284.99C430.703 287.716 424.69 289.078 417.817 289.078C406.62 289.078 397.852 285.613 391.513 278.681C385.173 271.749 382.004 262.181 382.004 249.977V198.434H411.152V242.601C411.152 249.058 412.544 254.065 415.329 257.619C418.113 261.174 421.964 262.951 426.882 262.951C432.036 262.951 436.065 261.115 438.968 257.442C441.871 253.768 443.322 248.703 443.322 242.245V198.434H472.471V287.301ZM557.783 284.902C550.674 287.686 543.772 289.078 537.077 289.078C530.027 289.078 523.777 287.597 518.326 284.635C512.935 281.613 508.728 277.466 505.707 272.194C502.685 266.862 501.175 260.67 501.175 253.62V224.472H485.623V198.434H502.774V176.217H530.323V198.434H554.317V224.472H530.323V248.377C530.323 253.058 531.627 256.671 534.233 259.219C536.84 261.766 539.98 263.04 543.653 263.04C547.208 263.04 550.674 261.915 554.051 259.663L557.783 284.902ZM582.844 179.416C579.17 179.416 576.06 178.142 573.513 175.595C571.024 172.988 569.78 169.848 569.78 166.175C569.78 162.561 571.024 159.48 573.513 156.933C576.06 154.326 579.17 153.023 582.844 153.023C586.576 153.023 589.716 154.326 592.264 156.933C594.811 159.48 596.085 162.561 596.085 166.175C596.085 169.848 594.811 172.988 592.264 175.595C589.716 178.142 586.576 179.416 582.844 179.416ZM597.507 287.301H568.358V198.434H597.507V287.301ZM660.425 289.078C651.183 289.078 642.918 287.094 635.631 283.124C628.403 279.096 622.715 273.615 618.568 266.684C614.421 259.693 612.348 251.754 612.348 242.867C612.348 233.981 614.421 226.072 618.568 219.14C622.715 212.149 628.403 206.669 635.631 202.699C642.918 198.671 651.183 196.656 660.425 196.656C669.667 196.656 677.872 198.671 685.041 202.699C692.269 206.669 697.927 212.149 702.015 219.14C706.162 226.072 708.235 233.981 708.235 242.867C708.235 251.754 706.162 259.693 702.015 266.684C697.927 273.615 692.269 279.096 685.041 283.124C677.872 287.094 669.667 289.078 660.425 289.078ZM660.336 262.951C663.772 262.951 666.853 262.092 669.578 260.374C672.303 258.656 674.436 256.257 675.976 253.176C677.576 250.095 678.376 246.6 678.376 242.69C678.376 238.898 677.576 235.491 675.976 232.47C674.436 229.448 672.303 227.079 669.578 225.361C666.853 223.642 663.772 222.783 660.336 222.783C656.84 222.783 653.73 223.642 651.005 225.361C648.28 227.079 646.117 229.448 644.517 232.47C642.977 235.491 642.207 238.898 642.207 242.69C642.207 246.6 642.977 250.095 644.517 253.176C646.117 256.257 648.28 258.656 651.005 260.374C653.73 262.092 656.84 262.951 660.336 262.951ZM813.543 287.301H784.394V242.779C784.394 236.439 783.032 231.522 780.307 228.027C777.641 224.531 773.849 222.783 768.932 222.783C765.555 222.783 762.592 223.613 760.045 225.272C757.557 226.931 755.631 229.3 754.268 232.381C752.906 235.462 752.224 239.165 752.224 243.489V287.301H723.076V198.434H746.359L747.337 212.653C750.477 207.439 754.654 203.47 759.867 200.744C765.081 198.019 771.153 196.656 778.085 196.656C789.164 196.656 797.843 200.093 804.123 206.965C810.403 213.778 813.543 223.228 813.543 235.314V287.301ZM825.273 279.747L831.405 255.398C833.123 257.294 835.523 259.1 838.603 260.819C841.684 262.537 845.002 263.929 848.557 264.995C852.17 266.002 855.547 266.506 858.687 266.506C861.709 266.506 864.049 265.973 865.708 264.906C867.367 263.84 868.196 262.418 868.196 260.641C868.196 258.982 867.544 257.59 866.241 256.464C864.938 255.279 863.22 254.213 861.087 253.265C858.954 252.317 856.525 251.369 853.8 250.421C850.008 248.999 846.039 247.311 841.891 245.356C837.744 243.341 834.249 240.646 831.405 237.269C828.621 233.833 827.228 229.271 827.228 223.583C827.228 218.073 828.65 213.304 831.494 209.276C834.397 205.247 838.485 202.137 843.758 199.945C849.03 197.752 855.222 196.656 862.331 196.656C874.002 196.656 885.703 199.589 897.433 205.454L889.258 228.027C887.362 226.486 884.933 225.035 881.971 223.672C879.008 222.25 875.957 221.125 872.817 220.295C869.737 219.406 867.011 218.962 864.641 218.962C862.212 218.962 860.346 219.436 859.043 220.384C857.739 221.332 857.088 222.606 857.088 224.205C857.088 225.627 857.651 226.901 858.776 228.027C859.902 229.093 861.531 230.1 863.664 231.048C865.797 231.996 868.255 233.003 871.04 234.07C875.069 235.491 879.156 237.21 883.304 239.224C887.451 241.238 890.946 243.963 893.79 247.4C896.693 250.836 898.144 255.427 898.144 261.174C898.144 266.802 896.604 271.72 893.523 275.926C890.443 280.073 886.088 283.302 880.46 285.613C874.891 287.923 868.315 289.078 860.731 289.078C848.053 289.078 836.234 285.968 825.273 279.747Z" fill="black"/>
<path d="M81.1357 133.301L0 94.3768V81.4908L81.1357 42.6562V66.5618L30.6592 87.9787L81.1357 109.396V133.301Z" fill="black"/>
<path d="M569.354 133.301L650.49 94.3768V81.4908L569.354 42.6562V66.5618L619.831 87.9787L569.354 109.396V133.301Z" fill="black"/>
<path d="M208.997 95.7508C208.997 65.7028 232.995 41.3008 263.245 41.3008C293.092 41.3008 317.393 65.7028 317.393 95.7508C317.393 110.372 311.746 123.984 301.562 134.269L276.757 162.301L302.066 190.837C311.847 200.618 317.493 214.331 317.493 228.851C317.493 258.899 293.092 283.301 263.245 283.301C233.398 283.301 208.997 258.899 208.997 228.851C208.997 214.331 214.643 200.618 224.928 190.333L249.733 162.301L224.424 133.765C214.643 123.984 208.997 110.271 208.997 95.7508ZM287.344 204.651L263.245 177.426L239.549 204.248C232.692 211.104 229.163 219.675 229.163 228.851C229.163 247.707 244.389 263.134 263.245 263.134C282.101 263.134 297.327 247.707 297.327 228.851C297.327 219.675 293.798 211.104 287.344 204.651ZM239.146 119.951L263.245 147.176L286.941 120.354C293.798 113.498 297.327 104.826 297.327 95.7508C297.327 76.8948 282.101 61.4678 263.245 61.4678C244.389 61.4678 229.163 76.8948 229.163 95.7508C229.163 104.927 232.692 113.498 239.146 119.951Z" fill="black"/>
</svg>
