<svg width="16" height="12" viewBox="0 0 16 12" fill="none" xmlns="http://www.w3.org/2000/svg">
<path fill-rule="evenodd" clip-rule="evenodd" d="M9.125 10.125C9.125 10.7463 8.62132 11.25 8 11.25C7.37868 11.25 6.875 10.7463 6.875 10.125C6.875 9.50368 7.37868 9 8 9C8.62132 9 9.125 9.50368 9.125 10.125ZM15.2188 2.50969C10.9905 -0.837883 5.01513 -0.837883 0.786875 2.50969C0.462235 2.76702 0.40767 3.2388 0.665 3.56344C0.92233 3.88808 1.39411 3.94264 1.71875 3.68531C5.40113 0.770516 10.6045 0.770516 14.2869 3.68531C14.4428 3.80891 14.6414 3.8655 14.839 3.84265C15.0366 3.81979 15.2171 3.71935 15.3406 3.56344C15.4642 3.40755 15.5208 3.20894 15.498 3.01132C15.4751 2.81369 15.3747 2.63325 15.2188 2.50969ZM12.1944 5.86219C9.69516 4.04584 6.31047 4.04584 3.81125 5.86219C3.47625 6.10606 3.40238 6.57532 3.64625 6.91031C3.89012 7.24531 4.35938 7.31918 4.69438 7.07531C6.66677 5.64086 9.33885 5.64086 11.3112 7.07531C11.6462 7.31918 12.1155 7.24531 12.3594 6.91031C12.6032 6.57532 12.5294 6.10606 12.1944 5.86219Z" fill="#0D121C"/>
</svg>
