<svg width="24" height="14" viewBox="0 0 24 14" fill="none" xmlns="http://www.w3.org/2000/svg">
<path fill-rule="evenodd" clip-rule="evenodd" d="M8.74781 1.5625L2.625 7L8.74406 12.4375C8.94502 12.6154 9.03584 12.8869 8.9823 13.1499C8.92875 13.4128 8.73899 13.6273 8.48448 13.7124C8.22998 13.7975 7.9494 13.7404 7.74844 13.5625L0.998438 7.5625C0.837 7.42013 0.744516 7.21525 0.744516 7C0.744516 6.78475 0.837 6.57987 0.998438 6.4375L7.74844 0.4375C7.9494 0.258979 8.23034 0.201231 8.48542 0.286008C8.74051 0.370785 8.93099 0.585209 8.98511 0.848508C9.03923 1.11181 8.94877 1.38398 8.74781 1.5625ZM22.9978 6.4375L16.2478 0.4375C15.9372 0.162566 15.4624 0.191527 15.1875 0.502188C14.9126 0.812848 14.9415 1.28757 15.2522 1.5625L21.375 7L15.2559 12.4375C15.055 12.6154 14.9642 12.8869 15.0177 13.1499C15.0712 13.4128 15.261 13.6273 15.5155 13.7124C15.77 13.7975 16.0506 13.7404 16.2516 13.5625L23.0016 7.5625C23.163 7.42013 23.2555 7.21525 23.2555 7C23.2555 6.78475 23.163 6.57987 23.0016 6.4375H22.9978Z" fill="#0D121C"/>
</svg>
