<svg width="20" height="20" viewBox="0 0 20 20" fill="none" xmlns="http://www.w3.org/2000/svg">
<path fill-rule="evenodd" clip-rule="evenodd" d="M10 0.25C4.61522 0.25 0.25 4.61522 0.25 10C0.25 15.3848 4.61522 19.75 10 19.75C15.3848 19.75 19.75 15.3848 19.75 10C19.7443 4.61758 15.3824 0.255684 10 0.25ZM10 1.75C11.5984 1.7483 13.1625 2.21361 14.5 3.08875V4.9375L12.4216 7.35063L9.47125 7.75L9.44219 7.72937L7.59813 6.52375C7.26784 6.29109 6.85766 6.2015 6.46044 6.27526C6.06322 6.34902 5.71255 6.5799 5.48781 6.91562L3.52469 9.85C3.36115 10.0945 3.27312 10.3818 3.27156 10.6759L3.25 14.0725L2.94344 14.2741C1.40042 11.7265 1.35033 8.54507 2.81238 5.95021C4.27443 3.35535 7.0216 1.75 10 1.75ZM3.83969 15.4816L4.07594 15.3269C4.49493 15.0505 4.74793 14.5829 4.75 14.0809L4.76969 10.6844L6.73469 7.75C6.74431 7.75741 6.75433 7.76429 6.76469 7.77063L8.60875 8.97719C8.91779 9.1953 9.29804 9.2881 9.67281 9.23687L12.625 8.83656C12.9891 8.78798 13.3226 8.60751 13.5625 8.32938L15.6409 5.91437C15.8734 5.64204 16.0007 5.29554 16 4.9375V4.34406C18.0662 6.53007 18.7767 9.66848 17.8534 12.5312L16.3403 11.1475C15.9109 10.7533 15.2919 10.6436 14.7531 10.8663L11.8975 12.0522C11.4119 12.256 11.0678 12.6985 10.99 13.2194L10.7659 14.7372C10.6544 15.4936 11.1298 16.2129 11.8694 16.4069L13.8813 16.9375L14.1025 17.1597C10.7161 19.1027 6.43087 18.402 3.83969 15.4816ZM15.3438 16.2812L14.9406 15.8772C14.7526 15.6884 14.5177 15.5532 14.26 15.4853L12.25 14.9547L12.4741 13.4369L15.3288 12.25L17.2188 13.9825C16.737 14.8552 16.1019 15.634 15.3438 16.2812Z" fill="#0D121C"/>
</svg>
