<svg width="22" height="17" viewBox="0 0 22 17" fill="none" xmlns="http://www.w3.org/2000/svg">
<path fill-rule="evenodd" clip-rule="evenodd" d="M20.75 11.75H20V2.75C20 1.50736 18.9926 0.5 17.75 0.5H4.25C3.00736 0.5 2 1.50736 2 2.75V11.75H1.25C0.835786 11.75 0.5 12.0858 0.5 12.5V14C0.5 15.2426 1.50736 16.25 2.75 16.25H19.25C20.4926 16.25 21.5 15.2426 21.5 14V12.5C21.5 12.0858 21.1642 11.75 20.75 11.75ZM3.5 2.75C3.5 2.33579 3.83579 2 4.25 2H17.75C18.1642 2 18.5 2.33579 18.5 2.75V11.75H3.5V2.75ZM20 14C20 14.4142 19.6642 14.75 19.25 14.75H2.75C2.33579 14.75 2 14.4142 2 14V13.25H20V14ZM13.25 4.25C13.25 4.66421 12.9142 5 12.5 5H9.5C9.08579 5 8.75 4.66421 8.75 4.25C8.75 3.83579 9.08579 3.5 9.5 3.5H12.5C12.9142 3.5 13.25 3.83579 13.25 4.25Z" fill="#0D121C"/>
</svg>
