<svg width="27" height="20" viewBox="0 0 27 20" fill="none" xmlns="http://www.w3.org/2000/svg">
<path fill-rule="evenodd" clip-rule="evenodd" d="M2.25 6V12.75C2.25 13.1642 2.58579 13.5 3 13.5H10.5C10.9142 13.5 11.25 13.8358 11.25 14.25C11.25 14.6642 10.9142 15 10.5 15H9V16.5H10.5C10.9142 16.5 11.25 16.8358 11.25 17.25C11.25 17.6642 10.9142 18 10.5 18H6C5.58579 18 5.25 17.6642 5.25 17.25C5.25 16.8358 5.58579 16.5 6 16.5H7.5V15H3C1.75736 15 0.75 13.9926 0.75 12.75V6C0.75 4.75736 1.75736 3.75 3 3.75H10.5C10.9142 3.75 11.25 4.08579 11.25 4.5C11.25 4.91421 10.9142 5.25 10.5 5.25H3C2.58579 5.25 2.25 5.58579 2.25 6ZM19.5 3H16.5C16.0858 3 15.75 3.33579 15.75 3.75C15.75 4.16421 16.0858 4.5 16.5 4.5H19.5C19.9142 4.5 20.25 4.16421 20.25 3.75C20.25 3.33579 19.9142 3 19.5 3ZM19.5 6H16.5C16.0858 6 15.75 6.33579 15.75 6.75C15.75 7.16421 16.0858 7.5 16.5 7.5H19.5C19.9142 7.5 20.25 7.16421 20.25 6.75C20.25 6.33579 19.9142 6 19.5 6ZM23.25 1.5V16.5C23.25 17.3284 22.5784 18 21.75 18H14.25C13.4216 18 12.75 17.3284 12.75 16.5V1.5C12.75 0.671573 13.4216 0 14.25 0H21.75C22.5784 0 23.25 0.671573 23.25 1.5ZM21.75 16.5V1.5H14.25V16.5H21.75ZM18 12.75C17.3787 12.75 16.875 13.2537 16.875 13.875C16.875 14.4963 17.3787 15 18 15C18.6213 15 19.125 14.4963 19.125 13.875C19.125 13.2537 18.6213 12.75 18 12.75Z" fill="#0D121C"/>
</svg>
