<svg width="16" height="18" viewBox="0 0 16 18" fill="none" xmlns="http://www.w3.org/2000/svg">
<path fill-rule="evenodd" clip-rule="evenodd" d="M15.5 0.75C15.5 1.16421 15.1642 1.5 14.75 1.5H12.0041C10.9163 1.4997 9.98412 2.27759 9.78969 3.34781L8.89906 8.25H13.25C13.6642 8.25 14 8.58579 14 9C14 9.41421 13.6642 9.75 13.25 9.75H8.62625L7.68875 14.9212C7.36415 16.7054 5.80937 18.0016 3.99594 18H1.25C0.835786 18 0.5 17.6642 0.5 17.25C0.5 16.8358 0.835786 16.5 1.25 16.5H3.99594C5.08368 16.5003 6.01588 15.7224 6.21031 14.6522L7.10094 9.75H2.75C2.33579 9.75 2 9.41421 2 9C2 8.58579 2.33579 8.25 2.75 8.25H7.37375L8.31125 3.07875C8.63585 1.29461 10.1906 -0.00163364 12.0041 0H14.75C15.1642 0 15.5 0.335786 15.5 0.75Z" fill="#0D121C"/>
</svg>
