<svg width="22" height="20" viewBox="0 0 22 20" fill="none" xmlns="http://www.w3.org/2000/svg">
<path fill-rule="evenodd" clip-rule="evenodd" d="M11.5 0.5H2.5C1.25736 0.5 0.25 1.50736 0.25 2.75V19.25C0.25 20.4926 1.25736 21.5 2.5 21.5H11.5C12.7426 21.5 13.75 20.4926 13.75 19.25V2.75C13.75 1.50736 12.7426 0.5 11.5 0.5ZM1.75 5H12.25V17H1.75V5ZM2.5 2H11.5C11.9142 2 12.25 2.33579 12.25 2.75V3.5H1.75V2.75C1.75 2.33579 2.08579 2 2.5 2ZM11.5 20H2.5C2.08579 20 1.75 19.6642 1.75 19.25V18.5H12.25V19.25C12.25 19.6642 11.9142 20 11.5 20Z" fill="#0D121C"/>
</svg>
