<svg width="18" height="18" viewBox="0 0 18 18" fill="none" xmlns="http://www.w3.org/2000/svg">
<path d="M16.6976 7.15213L16.6628 7.18251L13.1393 10.2575L12.6878 10.6516L12.8224 11.2356L13.8779 15.8137L13.8785 15.8163C13.9013 15.9142 13.8634 16.0162 13.7821 16.0753C13.7011 16.1343 13.5927 16.1391 13.5067 16.0877C13.5065 16.0876 13.5063 16.0874 13.506 16.0873L9.51547 13.6669L8.99632 13.352L8.47746 13.6674L4.49633 16.0873C4.496 16.0875 4.49566 16.0877 4.49532 16.0879C4.40941 16.1391 4.30119 16.1342 4.22024 16.0753C4.13897 16.0162 4.101 15.9142 4.12384 15.8163L4.12446 15.8136L5.17837 11.2402L5.31283 10.6567L4.86193 10.2626L1.33771 7.18294L1.33772 7.18292L1.3328 7.17868C1.25658 7.11294 1.22721 7.0079 1.25829 6.91216C1.28938 6.81643 1.37484 6.74867 1.47514 6.74024L1.4777 6.74002L6.12301 6.33768L6.72523 6.28552L6.95895 5.72806L8.77223 1.40306L8.77288 1.40148C8.81112 1.30984 8.9007 1.25016 9 1.25016C9.0993 1.25016 9.18888 1.30984 9.22712 1.40148L10.15 1.01641L9.22819 1.40405L11.0469 5.72905L11.281 6.28556L11.8824 6.33767L16.5262 6.74002L16.5288 6.74024C16.6291 6.74867 16.7145 6.81643 16.7456 6.91216C16.7728 6.99587 16.7538 7.08668 16.6976 7.15213Z" stroke="#005EFF" stroke-width="2"/>
</svg>
